<?xml version="1.0" ?>
<!-- Uploaded to: SVG Repo, www.svgrepo.com, Generator: SVG Repo Mixer Tools -->
<svg fill="#000000" width="800px" height="800px" viewBox="0 0 48 48" id="Layer_1" version="1.1" xml:space="preserve" xmlns="http://www.w3.org/2000/svg" xmlns:xlink="http://www.w3.org/1999/xlink">
<g>
<path d="M17.192,21.163V17.11c0-0.069-0.029-0.135-0.08-0.181l-3.451-3.083c-0.044-0.046-0.106-0.075-0.175-0.075   c-0.009,0-0.018,0.002-0.027,0.003H8.66c-0.134,0-0.243,0.109-0.243,0.243v7.146c0,0.134,0.109,0.243,0.243,0.243h8.288   C17.083,21.406,17.192,21.298,17.192,21.163z M8.903,14.26h4.339v6.66H8.903V14.26z M16.706,20.92h-2.977v-6.362l2.542,2.268   l0.435,0.391V20.92z"/>
<path d="M32.555,10.602c0.252,0,0.458-0.205,0.458-0.458c0-0.252-0.205-0.458-0.458-0.458c-0.252,0-0.458,0.205-0.458,0.458   C32.097,10.396,32.302,10.602,32.555,10.602z M32.555,10.116c0.016,0,0.028,0.013,0.028,0.028c0,0.016-0.013,0.028-0.028,0.028   c-0.016,0-0.028-0.013-0.028-0.028C32.526,10.128,32.539,10.116,32.555,10.116z"/>
<path d="M28.449,28.638h3.195c0.134,0,0.243-0.109,0.243-0.243V24.96c0-0.134-0.109-0.243-0.243-0.243h-3.195   c-0.134,0-0.243,0.109-0.243,0.243v3.436C28.206,28.53,28.315,28.638,28.449,28.638z M28.692,25.203h2.709v2.95h-2.709V25.203z"/>
<path d="M33.534,28.638h3.195c0.134,0,0.243-0.109,0.243-0.243V24.96c0-0.134-0.109-0.243-0.243-0.243h-3.195   c-0.134,0-0.243,0.109-0.243,0.243v3.436C33.291,28.53,33.4,28.638,33.534,28.638z M33.777,25.203h2.709v2.95h-2.709V25.203z"/>
<path d="M23.781,33.198h-3.195c-0.134,0-0.243,0.109-0.243,0.243v3.436c0,0.134,0.109,0.243,0.243,0.243h3.195   c0.134,0,0.243-0.109,0.243-0.243v-3.436C24.024,33.307,23.915,33.198,23.781,33.198z M23.538,36.634h-2.709v-2.95h2.709V36.634z"/>
<path d="M28.511,33.198h-3.195c-0.134,0-0.243,0.109-0.243,0.243v3.436c0,0.134,0.109,0.243,0.243,0.243h3.195   c0.134,0,0.243-0.109,0.243-0.243v-3.436C28.754,33.307,28.646,33.198,28.511,33.198z M28.268,36.634h-2.709v-2.95h2.709V36.634z"/>
<path d="M31.296,37.12h3.195c0.134,0,0.243-0.109,0.243-0.243v-3.436c0-0.134-0.109-0.243-0.243-0.243h-3.195   c-0.134,0-0.243,0.109-0.243,0.243v3.436C31.053,37.011,31.162,37.12,31.296,37.12z M31.539,33.684h2.709v2.95h-2.709V33.684z"/>
<path d="M36.381,37.12h3.195c0.134,0,0.243-0.109,0.243-0.243v-3.436c0-0.134-0.109-0.243-0.243-0.243h-3.195   c-0.134,0-0.243,0.109-0.243,0.243v3.436C36.138,37.011,36.247,37.12,36.381,37.12z M36.624,33.684h2.709v2.95h-2.709V33.684z"/>
<path d="M7.243,37.6C7.109,37.6,7,37.709,7,37.843v1.61c0,0.134,0.109,0.243,0.243,0.243h33.514c0.134,0,0.243-0.109,0.243-0.243   v-1.61v-5.368c0-0.134-0.109-0.243-0.243-0.243h-10.71h-10.71c-0.134,0-0.243,0.109-0.243,0.243V37.6h-4.324V22.626h3.596   c0.134,0,0.243-0.109,0.243-0.243v-5.437c0-0.069-0.029-0.135-0.08-0.181l-0.465-0.419l13.546-4.629   c0.212,0.132,0.451,0.216,0.703,0.249v11.783h-5.112c-0.134,0-0.243,0.109-0.243,0.243v5.368c0,0.134,0.109,0.243,0.243,0.243   h10.71c0.134,0,0.243-0.109,0.243-0.243v-5.368c0-0.134-0.109-0.243-0.243-0.243h-5.112V11.966c0.9-0.12,1.598-0.89,1.598-1.823   c0-1.015-0.826-1.84-1.841-1.84c-0.749,0-1.411,0.444-1.686,1.111l-16.139,3.95l-0.849-0.757c-0.045-0.04-0.102-0.062-0.162-0.062   H7.243C7.109,12.546,7,12.655,7,12.789v9.594c0,0.134,0.109,0.243,0.243,0.243h3.605V37.6H7.243z M37.667,29.119H27.442v-4.882   h10.224V29.119z M40.514,39.211H7.486v-1.124h3.605h3.436h4.81h10.71h10.467V39.211z M40.514,37.6H30.29v-4.882h10.224V37.6z    M19.579,32.718h10.224V37.6H19.579V32.718z M32.555,8.789c0.747,0,1.355,0.608,1.355,1.354c0,0.747-0.608,1.355-1.355,1.355   c-0.287,0-0.545-0.082-0.773-0.249c-0.364-0.25-0.582-0.664-0.582-1.105c0-0.147,0.027-0.299,0.082-0.448   C31.461,9.154,31.972,8.789,32.555,8.789z M30.725,9.95c-0.001,0.009-0.001,0.017-0.002,0.026c-0.001,0.01-0.002,0.021-0.003,0.031   c-0.004,0.046-0.006,0.091-0.006,0.136c0,0.05,0.003,0.1,0.007,0.149c0.001,0.012,0.002,0.025,0.003,0.037   c0.01,0.099,0.028,0.197,0.054,0.292c0.003,0.01,0.006,0.02,0.009,0.031c0.028,0.097,0.064,0.192,0.108,0.283   c0.003,0.006,0.006,0.012,0.009,0.018c0.046,0.094,0.101,0.184,0.163,0.269c0.001,0.002,0.003,0.004,0.004,0.006   c0.032,0.043,0.065,0.085,0.101,0.126l-13.523,4.621l-0.696-0.623l-1.783-1.594L30.725,9.95z M7.486,13.032h6.141l3.766,3.365   l0.038,0.034c0,0,0,0,0,0l0.692,0.623v5.086h-3.596h-3.436H7.486V13.032z M11.334,22.626h2.95V37.6h-2.95V22.626z"/>
</g>
</svg>